# xmcd
#
# Track frame offsets:
#	150
#	10231
#	20837
#	33362
#	42029
#	55252
#	67311
#	80379
#	90667
#	101656
#	112952
#	124858
#	137151
#	148882
#	161340
#	173373
#	182846
#	192822
#
# Disc length: 2733 seconds
#
# Revision: 1
# Processed by: cddbd v1.5.2PL0 Copyright (c) Steve Scherf et al.
# Submitted via: EZCDAudioConverter 3.1.0.1
#
DISCID=f20aab12
DTITLE=VA_ - Stompin Volume Three
DYEAR=1900
DGENRE=Rhythm and Blues
TTITLE0=Jackie Brenston - Much Later
TTITLE1=Harmon "Hump" Jones - Lookin' For My Baby
TTITLE2=Crawford Bros - I Ain't Guilty
TTITLE3=The Table Toppers - Talk To Me Baby
TTITLE4=Mister Ruffin - Bring It On Back
TTITLE5=Johnny Little John - Bloody Tears
TTITLE6=Polka Dot Slim - A Thing You Gotta Face
TTITLE7=Big Daddy - I Think You're Lying
TTITLE8=Sherman Evans - Yo Yo Twist
TTITLE9=Phil Flowers - Twistin' Beat
TTITLE10=Little Papa Joe - Looking For My Baby
TTITLE11=Freddie Clark - Beggin' Papa Blues
TTITLE12=The Bees - Tough Enough
TTITLE13=Rufus Thomas - The Easy Livin' Plan
TTITLE14=Wally Mercer - Rock Around The Clock
TTITLE15=The Team Mates - Crazy Baby
TTITLE16=Jackie Brenston - Trouble Up The Road
TTITLE17=Blues Rockers - Calling All Cows
EXTD=
EXTT0=
EXTT1=
EXTT2=
EXTT3=
EXTT4=
EXTT5=
EXTT6=
EXTT7=
EXTT8=
EXTT9=
EXTT10=
EXTT11=
EXTT12=
EXTT13=
EXTT14=
EXTT15=
EXTT16=
EXTT17=
PLAYORDER=
